<svg width="161" height="32" viewBox="0 0 161 32" fill="none" xmlns="http://www.w3.org/2000/svg">
<path fill-rule="evenodd" clip-rule="evenodd" d="M74.8064 5.03683C74.2688 5.52643 73.5584 5.77123 72.6752 5.77123C71.792 5.77123 71.0816 5.52643 70.544 5.03683C70.0064 4.54723 69.7376 3.93763 69.7376 3.20803C69.7376 2.45923 70.0064 1.84003 70.544 1.35043C71.0816 0.860828 71.792 0.616028 72.6752 0.616028C73.5584 0.616028 74.2688 0.860828 74.8064 1.35043C75.344 1.84003 75.6128 2.45923 75.6128 3.20803C75.6128 3.93763 75.344 4.54723 74.8064 5.03683ZM11.5904 20.0272V23.8H0.0991974V3.43843H5.024V20.0272H11.5904ZM25.6592 23.008C24.4016 23.6704 22.976 24.0016 21.3824 24.0016C19.7888 24.0016 18.3584 23.6704 17.0912 23.008C15.824 22.3456 14.8304 21.3904 14.1104 20.1424C13.3904 18.8944 13.0304 17.4352 13.0304 15.7648C13.0304 14.0944 13.3904 12.6352 14.1104 11.3872C14.8304 10.1392 15.824 9.18403 17.0912 8.52163C18.3584 7.85923 19.7888 7.52803 21.3824 7.52803C22.976 7.52803 24.4016 7.85923 25.6592 8.52163C26.9168 9.18403 27.9056 10.1392 28.6256 11.3872C29.3456 12.6352 29.7056 14.0944 29.7056 15.7648C29.7056 17.4352 29.3456 18.8944 28.6256 20.1424C27.9056 21.3904 26.9168 22.3456 25.6592 23.008ZM21.3824 19.7104C20.4416 19.7104 19.6496 19.3744 19.0064 18.7024C18.3632 18.0304 18.0416 17.0512 18.0416 15.7648C18.0416 14.4784 18.3632 13.4944 19.0064 12.8128C19.6496 12.1312 20.4416 11.7904 21.3824 11.7904C22.3232 11.7904 23.1104 12.1312 23.744 12.8128C24.3776 13.4944 24.6944 14.4784 24.6944 15.7648C24.6944 17.0512 24.3776 18.0304 23.744 18.7024C23.1104 19.3744 22.3232 19.7104 21.3824 19.7104ZM44.8832 30.6256C43.6928 31.336 42.2144 31.6912 40.448 31.6912C38.0288 31.6912 36.0944 31.12 34.6448 29.9776C33.1952 28.8352 32.3264 27.2848 32.0384 25.3264H36.9056C37.0592 25.9792 37.4096 26.488 37.9568 26.8528C38.504 27.2176 39.2192 27.4 40.1024 27.4C41.12 27.4 41.9408 27.1072 42.5648 26.5216C43.1888 25.936 43.5008 25 43.5008 23.7136V20.8912C43.0784 21.8512 42.4256 22.6096 41.5424 23.1664C40.6592 23.7232 39.6032 24.0016 38.3744 24.0016C37.0496 24.0016 35.864 23.6704 34.8176 23.008C33.7712 22.3456 32.9456 21.3904 32.3408 20.1424C31.736 18.8944 31.4336 17.4352 31.4336 15.7648C31.4336 14.0752 31.736 12.6112 32.3408 11.3728C32.9456 10.1344 33.7712 9.18403 34.8176 8.52163C35.864 7.85923 37.0496 7.52803 38.3744 7.52803C39.6032 7.52803 40.6592 7.80643 41.5424 8.36323C42.4256 8.92003 43.0784 9.67843 43.5008 10.6384V7.72963H48.3968V23.7136C48.3968 25.2112 48.1088 26.56 47.5328 27.76C46.9568 28.96 46.0736 29.9152 44.8832 30.6256ZM39.9584 19.6816C38.9024 19.6816 38.0528 19.336 37.4096 18.6448C36.7664 17.9536 36.4448 16.9936 36.4448 15.7648C36.4448 14.536 36.7664 13.576 37.4096 12.8848C38.0528 12.1936 38.9024 11.848 39.9584 11.848C40.9952 11.848 41.8448 12.1984 42.5072 12.8992C43.1696 13.6 43.5008 14.5552 43.5008 15.7648C43.5008 16.9552 43.1696 17.9056 42.5072 18.616C41.8448 19.3264 40.9952 19.6816 39.9584 19.6816ZM63.5888 23.008C62.3312 23.6704 60.9056 24.0016 59.312 24.0016C57.7184 24.0016 56.288 23.6704 55.0208 23.008C53.7536 22.3456 52.76 21.3904 52.04 20.1424C51.32 18.8944 50.96 17.4352 50.96 15.7648C50.96 14.0944 51.32 12.6352 52.04 11.3872C52.76 10.1392 53.7536 9.18403 55.0208 8.52163C56.288 7.85923 57.7184 7.52803 59.312 7.52803C60.9056 7.52803 62.3312 7.85923 63.5888 8.52163C64.8464 9.18403 65.8352 10.1392 66.5552 11.3872C67.2752 12.6352 67.6352 14.0944 67.6352 15.7648C67.6352 17.4352 67.2752 18.8944 66.5552 20.1424C65.8352 21.3904 64.8464 22.3456 63.5888 23.008ZM59.312 19.7104C58.3712 19.7104 57.5792 19.3744 56.936 18.7024C56.2928 18.0304 55.9712 17.0512 55.9712 15.7648C55.9712 14.4784 56.2928 13.4944 56.936 12.8128C57.5792 12.1312 58.3712 11.7904 59.312 11.7904C60.2528 11.7904 61.04 12.1312 61.6736 12.8128C62.3072 13.4944 62.624 14.4784 62.624 15.7648C62.624 17.0512 62.3072 18.0304 61.6736 18.7024C61.04 19.3744 60.2528 19.7104 59.312 19.7104ZM75.1232 7.72963H70.1984V23.8H75.1232V7.72963ZM83.4464 20.8912V31.4608H78.5216V7.72963H83.4464V10.6384C83.8496 9.67843 84.4928 8.92003 85.376 8.36323C86.2592 7.80643 87.3152 7.52803 88.544 7.52803C89.8688 7.52803 91.0544 7.85923 92.1008 8.52163C93.1472 9.18403 93.9728 10.1344 94.5776 11.3728C95.1824 12.6112 95.4848 14.0752 95.4848 15.7648C95.4848 17.4352 95.1824 18.8944 94.5776 20.1424C93.9728 21.3904 93.1472 22.3456 92.1008 23.008C91.0544 23.6704 89.8688 24.0016 88.544 24.0016C87.3152 24.0016 86.2592 23.7232 85.376 23.1664C84.4928 22.6096 83.8496 21.8512 83.4464 20.8912ZM86.96 19.6816C85.9232 19.6816 85.0736 19.3264 84.4112 18.616C83.7488 17.9056 83.4176 16.9552 83.4176 15.7648C83.4176 14.5552 83.7488 13.6 84.4112 12.8992C85.0736 12.1984 85.9232 11.848 86.96 11.848C88.016 11.848 88.8656 12.1936 89.5088 12.8848C90.152 13.576 90.4736 14.536 90.4736 15.7648C90.4736 16.9936 90.152 17.9536 89.5088 18.6448C88.8656 19.336 88.016 19.6816 86.96 19.6816ZM108.387 23.3968C107.446 23.8 106.333 24.0016 105.046 24.0016C102.877 24.0016 101.139 23.5216 99.8336 22.5616C98.528 21.6016 97.7312 20.2288 97.4432 18.4432H102.195C102.272 19.1344 102.565 19.6624 103.074 20.0272C103.582 20.392 104.24 20.5744 105.046 20.5744C105.603 20.5744 106.026 20.4448 106.314 20.1856C106.602 19.9264 106.746 19.5856 106.746 19.1632C106.746 18.6064 106.482 18.208 105.954 17.968C105.426 17.728 104.566 17.4736 103.376 17.2048C102.186 16.9552 101.206 16.6864 100.438 16.3984C99.6704 16.1104 99.008 15.6448 98.4512 15.0016C97.8944 14.3584 97.616 13.48 97.616 12.3664C97.616 10.9264 98.1632 9.76003 99.2576 8.86723C100.352 7.97443 101.898 7.52803 103.894 7.52803C105.93 7.52803 107.557 8.03683 108.776 9.05443C109.995 10.072 110.758 11.416 111.066 13.0864H106.458C106.323 12.4336 106.021 11.92 105.55 11.5456C105.08 11.1712 104.49 10.984 103.779 10.984C103.222 10.984 102.8 11.104 102.512 11.344C102.224 11.584 102.08 11.9248 102.08 12.3664C102.08 12.8656 102.344 13.24 102.872 13.4896C103.4 13.7392 104.23 13.9888 105.363 14.2384C106.592 14.5264 107.6 14.8192 108.387 15.1168C109.174 15.4144 109.856 15.8992 110.432 16.5712C111.008 17.2432 111.296 18.1456 111.296 19.2784C111.296 20.2 111.046 21.016 110.547 21.7264C110.048 22.4368 109.328 22.9936 108.387 23.3968ZM119.821 23.9728C121.03 23.9728 122.091 23.6944 123.003 23.1376C123.915 22.5808 124.602 21.832 125.062 20.8912V23.8H130.016V7.72963H125.062V16.2544C125.062 17.4256 124.774 18.328 124.198 18.9616C123.622 19.5952 122.835 19.912 121.837 19.912C120.877 19.912 120.114 19.6096 119.547 19.0048C118.981 18.4 118.698 17.5504 118.698 16.456V7.72963H113.802V17.0608C113.802 19.2112 114.344 20.9008 115.429 22.1296C116.514 23.3584 117.978 23.9728 119.821 23.9728ZM138.339 15.2752V23.8H133.414V7.72963H138.339V10.4656C138.762 9.56323 139.41 8.85283 140.283 8.33443C141.157 7.81603 142.179 7.55683 143.35 7.55683C144.579 7.55683 145.664 7.84003 146.605 8.40643C147.546 8.97283 148.256 9.78403 148.736 10.84C149.293 9.84163 150.056 9.04483 151.026 8.44963C151.995 7.85443 153.066 7.55683 154.237 7.55683C156.214 7.55683 157.77 8.16643 158.902 9.38563C160.035 10.6048 160.602 12.2992 160.602 14.4688V23.8H155.706V15.0448C155.706 14.0272 155.432 13.2352 154.885 12.6688C154.338 12.1024 153.594 11.8192 152.653 11.8192C151.674 11.8192 150.901 12.1216 150.334 12.7264C149.768 13.3312 149.485 14.1808 149.485 15.2752V23.8H144.56V15.0448C144.56 14.0272 144.291 13.2352 143.754 12.6688C143.216 12.1024 142.477 11.8192 141.536 11.8192C140.557 11.8192 139.779 12.1168 139.203 12.712C138.627 13.3072 138.339 14.1616 138.339 15.2752Z" fill="#D8D8D8"/>
</svg>
